<svg width="34" height="34" viewBox="0 0 34 34" fill="none" xmlns="http://www.w3.org/2000/svg">
<path d="M29.75 15.2292H30.8125V12.75C30.8102 10.966 30.1006 9.25572 28.8391 7.99424C27.5776 6.73276 25.8673 6.02308 24.0833 6.02083H9.91667C8.13267 6.02308 6.42239 6.73276 5.16091 7.99424C3.89944 9.25572 3.18975 10.966 3.1875 12.75V15.2292H4.25C4.71965 15.2292 5.17007 15.4157 5.50217 15.7478C5.83426 16.0799 6.02083 16.5303 6.02083 17C6.02083 17.4696 5.83426 17.9201 5.50217 18.2522C5.17007 18.5843 4.71965 18.7708 4.25 18.7708H3.1875V21.25C3.18975 23.034 3.89944 24.7443 5.16091 26.0057C6.42239 27.2672 8.13267 27.9769 9.91667 27.9792H24.0833C25.8673 27.9769 27.5776 27.2672 28.8391 26.0057C30.1006 24.7443 30.8102 23.034 30.8125 21.25V18.7708H29.75C29.2803 18.7708 28.8299 18.5843 28.4978 18.2522C28.1657 17.9201 27.9792 17.4696 27.9792 17C27.9792 16.5303 28.1657 16.0799 28.4978 15.7478C28.8299 15.4157 29.2803 15.2292 29.75 15.2292ZM28.6875 20.7542V21.25C28.686 22.4706 28.2004 23.6409 27.3373 24.504C26.4742 25.3671 25.304 25.8527 24.0833 25.8542H22.3125V22.6667C22.3125 22.3849 22.2006 22.1146 22.0013 21.9154C21.802 21.7161 21.5318 21.6042 21.25 21.6042C20.9682 21.6042 20.698 21.7161 20.4987 21.9154C20.2994 22.1146 20.1875 22.3849 20.1875 22.6667V25.8542H9.91667C8.69603 25.8527 7.52581 25.3671 6.66269 24.504C5.79956 23.6409 5.314 22.4706 5.3125 21.25V20.7485C6.12863 20.5174 6.84705 20.0263 7.35865 19.3498C7.87025 18.6732 8.14708 17.8482 8.14708 17C8.14708 16.1518 7.87025 15.3268 7.35865 14.6502C6.84705 13.9737 6.12863 13.4826 5.3125 13.2515V12.75C5.314 11.5294 5.79956 10.3591 6.66269 9.49601C7.52581 8.63289 8.69603 8.14733 9.91667 8.14583H20.1875V11.3333C20.1875 11.6151 20.2994 11.8854 20.4987 12.0846C20.698 12.2839 20.9682 12.3958 21.25 12.3958C21.5318 12.3958 21.802 12.2839 22.0013 12.0846C22.2006 11.8854 22.3125 11.6151 22.3125 11.3333V8.14583H24.0833C25.304 8.14733 26.4742 8.63289 27.3373 9.49601C28.2004 10.3591 28.686 11.5294 28.6875 12.75V13.2515C27.8714 13.4826 27.1529 13.9737 26.6413 14.6502C26.1297 15.3268 25.8529 16.1518 25.8529 17C25.8529 17.8482 26.1297 18.6732 26.6413 19.3498C27.1529 20.0263 27.8714 20.5174 28.6875 20.7485V20.7542ZM22.3125 15.5833V18.4167C22.3125 18.6985 22.2006 18.9687 22.0013 19.168C21.802 19.3672 21.5318 19.4792 21.25 19.4792C20.9682 19.4792 20.698 19.3672 20.4987 19.168C20.2994 18.9687 20.1875 18.6985 20.1875 18.4167V15.5833C20.1875 15.3015 20.2994 15.0313 20.4987 14.832C20.698 14.6328 20.9682 14.5208 21.25 14.5208C21.5318 14.5208 21.802 14.6328 22.0013 14.832C22.2006 15.0313 22.3125 15.3015 22.3125 15.5833Z" fill="#009863"/>
</svg>
